<svg id="svg" version="1.1" width="400" height="400" xmlns="http://www.w3.org/2000/svg" xmlns:xlink="http://www.w3.org/1999/xlink" style="display: block;"><g id="svgg"><path id="path0" d="M184.000 0.277 C 183.725 0.551,180.350 1.051,176.500 1.390 C 88.759 9.097,10.816 86.947,1.256 176.423 C -17.773 354.526,185.627 467.293,325.000 355.910 C 431.215 271.026,423.117 107.295,309.000 32.431 C 300.590 26.914,280.428 16.000,278.646 16.000 C 278.278 16.000,276.071 15.136,273.739 14.081 C 263.605 9.494,241.556 3.615,226.500 1.486 C 220.945 0.701,184.613 -0.333,184.000 0.277 M223.500 16.501 C 225.700 16.785,228.625 17.248,230.000 17.531 C 231.375 17.814,233.850 18.280,235.500 18.566 C 243.057 19.878,255.327 23.118,258.025 24.513 C 259.661 25.359,261.000 25.845,261.000 25.593 C 261.000 24.426,281.609 33.687,291.156 39.143 C 326.680 59.446,356.024 92.601,370.906 129.250 C 373.084 134.612,374.616 139.000,374.310 139.000 C 374.005 139.000,374.237 139.580,374.825 140.289 C 375.414 140.999,376.349 143.361,376.903 145.539 C 377.457 147.718,378.596 152.200,379.434 155.500 C 380.272 158.800,381.229 163.290,381.561 165.479 C 381.893 167.667,382.355 169.765,382.587 170.141 C 384.895 173.874,384.909 226.077,382.604 229.838 C 382.380 230.202,381.920 232.254,381.581 234.398 C 380.682 240.078,377.911 251.024,375.352 259.000 C 375.087 259.825,374.915 260.500,374.970 260.500 C 375.024 260.500,373.241 265.000,371.008 270.500 C 362.118 292.392,348.554 312.491,330.266 330.869 L 318.954 342.238 311.621 341.664 C 264.715 337.991,224.561 295.860,242.708 269.357 C 248.362 261.099,252.508 251.370,256.014 238.135 C 258.217 229.818,259.326 227.293,261.629 225.350 C 271.213 217.269,271.751 216.505,275.601 205.500 C 277.509 200.046,277.995 189.815,276.645 183.500 C 276.175 181.300,275.432 167.125,274.994 152.000 C 274.027 118.628,272.985 113.953,263.735 101.462 C 233.677 60.870,181.516 56.689,144.660 91.918 C 128.551 107.315,126.035 115.003,124.998 152.000 C 124.589 166.575,124.009 179.456,123.709 180.625 C 123.409 181.794,122.746 184.269,122.237 186.125 C 120.880 191.069,121.443 199.501,123.320 202.366 C 124.219 203.737,125.255 206.741,125.622 209.040 C 126.301 213.283,127.975 215.364,137.849 224.238 C 140.137 226.294,141.905 228.319,141.779 228.738 C 141.242 230.531,147.966 252.627,151.376 260.268 C 152.659 263.146,155.574 267.740,157.852 270.479 C 164.172 278.074,164.235 280.258,158.564 295.433 C 150.022 318.294,131.512 332.757,99.602 341.504 C 85.288 345.427,84.876 345.335,74.768 335.965 C 54.039 316.749,34.365 287.661,27.445 266.000 C 26.478 262.975,25.312 259.600,24.852 258.500 C 22.768 253.513,19.399 240.791,18.470 234.398 C 18.158 232.254,17.710 229.926,17.474 229.226 C 15.085 222.141,15.031 177.873,17.403 170.959 C 17.678 170.157,18.158 167.746,18.470 165.602 C 19.300 159.886,22.824 146.049,24.734 141.000 C 25.047 140.175,25.411 138.991,25.545 138.370 C 26.066 135.946,33.968 118.179,37.052 112.496 C 58.039 73.826,91.120 44.503,132.750 27.668 C 136.188 26.277,139.000 25.389,139.000 25.693 C 139.000 25.996,139.580 25.763,140.289 25.175 C 140.999 24.586,143.361 23.680,145.539 23.160 C 147.718 22.641,152.113 21.510,155.308 20.648 C 158.502 19.785,162.992 18.799,165.287 18.457 C 167.581 18.115,169.765 17.645,170.141 17.413 C 170.517 17.181,174.801 16.712,179.662 16.371 C 184.523 16.030,188.725 15.526,189.000 15.251 C 189.559 14.692,217.263 15.696,223.500 16.501 " stroke="none" fill="#c0c0c0" fill-rule="evenodd"></path></g></svg>